<svg xmlns="http://www.w3.org/2000/svg" width="683" height="490" viewBox="0 0 683 490">
  <g id="Group_14566" data-name="Group 14566" transform="translate(-960 -139)">
    <g id="Group_13171" data-name="Group 13171" transform="translate(960 139)">
      <path id="Path_23853" data-name="Path 23853" d="M173.6,35.467v50" transform="translate(255.391 6.504) rotate(30)" fill="none" stroke="#383838" stroke-linecap="round" stroke-width="2" stroke-dasharray="4"/>
      <path id="Path_23852" data-name="Path 23852" d="M173.6,35.467v60" transform="translate(-135.575 138.774) rotate(-30)" fill="none" stroke="#383838" stroke-linecap="round" stroke-width="2" stroke-dasharray="4"/>
      <g id="Group_13150" data-name="Group 13150" transform="translate(378.933 78.4)">
        <rect id="Rectangle_3702" data-name="Rectangle 3702" width="39" height="47" transform="translate(0.067 -0.4)" fill="#f9865f"/>
        <rect id="Rectangle_3703" data-name="Rectangle 3703" width="33" height="41" transform="translate(3.067 2.6)" fill="#fff" opacity="0.6" style="isolation: isolate"/>
        <rect id="Rectangle_3704" data-name="Rectangle 3704" width="27" height="2" transform="translate(6.067 6.6)" fill="#7595ec"/>
        <rect id="Rectangle_3845" data-name="Rectangle 3845" width="27" height="2" transform="translate(6.067 17.6)" fill="#7595ec"/>
        <rect id="Rectangle_3847" data-name="Rectangle 3847" width="27" height="2" transform="translate(6.067 28.6)" fill="#7595ec"/>
        <rect id="Rectangle_3843" data-name="Rectangle 3843" width="27" height="1" transform="translate(6.067 12.6)" fill="#7595ec"/>
        <rect id="Rectangle_3844" data-name="Rectangle 3844" width="27" height="2" transform="translate(6.067 23.6)" fill="#7595ec"/>
        <rect id="Rectangle_3846" data-name="Rectangle 3846" width="21" height="2" transform="translate(6.067 34.6)" fill="#7595ec"/>
      </g>
      <g id="Group_13149" data-name="Group 13149" transform="translate(279 20)">
        <path id="Path_14285" data-name="Path 14285" d="M217.408,104.3A20.5,20.5,0,1,1,239.891,86,20.522,20.522,0,0,1,217.408,104.3Z" transform="translate(-198.999 -63.405)" fill="#91ba83"/>
        <ellipse id="Ellipse_563" data-name="Ellipse 563" cx="17.467" cy="17.967" rx="17.467" ry="17.967" transform="translate(2.933 2.467)" fill="#fff" opacity="0.3"/>
        <path id="Path_14286" data-name="Path 14286" d="M226.6,78.613c-2.13-1.566-5.1-6.889-5.1-6.914L219.584,90.99c.043-.437-1.623-.879-2.73-1-2.679-.283-4.931,1.014-5.117,2.888s1.87,3.628,4.549,3.911,4.905-1.015,5.092-2.89c.027-.282-.187-.58-.162-.842L222.692,78.2a12.024,12.024,0,0,0,3.965,3.1c2.019.963,2.78,3.85,2.78,3.85A7.6,7.6,0,0,0,226.6,78.613Z" transform="translate(-200.557 -64.233)" fill="#fff"/>
      </g>
      <g id="Group_13151" data-name="Group 13151" transform="translate(0 49.333)">
        <path id="Path_14291" data-name="Path 14291" d="M84.85,98.37l-1.7-1.047a2.261,2.261,0,0,0-2.043-.176l-7.585,3.17a1.977,1.977,0,0,0-1.208,1.535l-.276,1.874a1.977,1.977,0,0,1-1.208,1.535L66.3,107.153a1.982,1.982,0,0,0-1.016,2.738l12.059,24.7a2.283,2.283,0,0,0,2.892,1.105L116.106,120.7a1.984,1.984,0,0,0,1.016-2.738l-12.06-24.7a2.283,2.283,0,0,0-2.892-1.1L86.893,98.545A2.258,2.258,0,0,1,84.85,98.37Z" transform="translate(-65.069 -91.994)" fill="#7595ec"/>
        <path id="Path_14292" data-name="Path 14292" d="M107.658,93.143,74.467,106.882a2.981,2.981,0,0,0-1.691,3.59l7.27,22.749a2.438,2.438,0,0,0,3.322,1.515L116.56,121a2.979,2.979,0,0,0,1.69-3.589l-7.27-22.75A2.439,2.439,0,0,0,107.658,93.143Z" transform="translate(-66.113 -92.007)" fill="#7595ec"/>
        <path id="Path_14293" data-name="Path 14293" d="M107.658,93.143,74.467,106.882a2.981,2.981,0,0,0-1.691,3.59l7.27,22.749a2.438,2.438,0,0,0,3.322,1.515L116.56,121a2.979,2.979,0,0,0,1.69-3.589l-7.27-22.75A2.439,2.439,0,0,0,107.658,93.143Z" transform="translate(-66.113 -92.007)" fill="#fff" opacity="0.5"/>
      </g>
      <g id="Group_13148" data-name="Group 13148" transform="translate(151.2)">
        <path id="Path_14448" data-name="Path 14448" d="M0,0,44.79.014l.01,35.453L.01,35.453Z" transform="translate(0)" fill="#ff6d66"/>
        <path id="Path_14450" data-name="Path 14450" d="M0,0,39.19.015l.01,29.851L.01,29.851Z" transform="translate(2.8 2.8)" fill="#fff" opacity="0.38"/>
        <path id="Path_14289" data-name="Path 14289" d="M168.8,67.839a3.267,3.267,0,1,1-3.521-2.992A3.266,3.266,0,0,1,168.8,67.839Z" transform="translate(-153.881 -59.236)" fill="#f9f9f9"/>
        <path id="Path_14282" data-name="Path 14282" d="M414.378,163.825l9.5,8.813,16.672-16.647,13.029,9.428v17.639h-39.2Z" transform="translate(-411.578 -150.391)" fill="#ff584e"/>
      </g>
      <path id="Path_23850" data-name="Path 23850" d="M173.6,35.467v30" transform="translate(-0.6 -0.467)" fill="none" stroke="#383838" stroke-linecap="round" stroke-width="2" stroke-dasharray="4"/>
      <path id="Path_23851" data-name="Path 23851" d="M173.6,35.467v42" transform="translate(126.4 25.533)" fill="none" stroke="#383838" stroke-linecap="round" stroke-width="2" stroke-dasharray="4"/>
      <g id="Group_13164" data-name="Group 13164" transform="translate(112.933 236.2)">
        <path id="Path_14452" data-name="Path 14452" d="M-7879-7358.639v35.467" transform="translate(7977.934 7358.639)" fill="none" stroke="#073570" stroke-linecap="round" stroke-width="1" stroke-dasharray="2"/>
        <path id="Path_14455" data-name="Path 14455" d="M-7879-7358.639v13.067" transform="translate(8076.867 7378.239)" fill="none" stroke="#073570" stroke-linecap="round" stroke-width="1" stroke-dasharray="2"/>
        <path id="Path_14454" data-name="Path 14454" d="M-7879-7358.639v13.067" transform="translate(7879 7378.239)" fill="none" stroke="#073570" stroke-linecap="round" stroke-width="1" stroke-dasharray="2"/>
        <path id="Path_14456" data-name="Path 14456" d="M-7985-7333.63h197.867" transform="translate(7985 7352.296)" fill="none" stroke="#073570" stroke-linecap="round" stroke-width="1" stroke-dasharray="2"/>
      </g>
      <g id="Group_13159" data-name="Group 13159" transform="translate(46.667 64.467)">
        <path id="Path_14451" data-name="Path 14451" d="M332.6,189.532a55.97,55.97,0,0,0-55.767-55.7,55.254,55.254,0,0,0-20.878,4.084,67.254,67.254,0,0,0-126.372,15.021c-30.277,1.96-91.569,27.3-91.569,58.294,0,32.271,16.639,58.432,48.679,58.432H317.952A41.466,41.466,0,0,0,332.6,189.532Z" transform="translate(-29.61 -96.993)" fill="#f9865f"/>
        <path id="Path_14400" data-name="Path 14400" d="M335.263,189.532a55.97,55.97,0,0,0-55.767-55.7,55.254,55.254,0,0,0-20.878,4.084,67.254,67.254,0,0,0-126.372,15.021A58.249,58.249,0,0,0,78.01,211.227c0,32.271,25.972,58.432,58.012,58.432h184.6a41.466,41.466,0,0,0,14.644-80.128Z" transform="translate(-78.01 -99.793)" fill="#fad8b0" stroke="#f9865f" stroke-width="4"/>
        <path id="Path_14402" data-name="Path 14402" d="M335.959,189.129a55.922,55.922,0,0,0-76.853-51.388,67.587,67.587,0,0,0-126.714,14.954,58.163,58.163,0,0,0,3.787,116.2h185.1a41.236,41.236,0,0,0,14.683-79.768Z" transform="translate(-77.104 -96.087)" fill="none"/>
        <g id="Group_13158" data-name="Group 13158" transform="translate(124.133 68.133)">
          <g id="Group_13157" data-name="Group 13157" transform="translate(0 22.4)">
            <path id="Rectangle_3733" data-name="Rectangle 3733" d="M5,0H19a0,0,0,0,1,0,0V82a0,0,0,0,1,0,0H5a5,5,0,0,1-5-5V5A5,5,0,0,1,5,0Z" transform="translate(54.2 82) rotate(180)" fill="#e25851"/>
            <rect id="Rectangle_3734" data-name="Rectangle 3734" width="40" height="82" rx="5" transform="translate(0.2)" fill="#ff6d66"/>
            <rect id="Rectangle_3735" data-name="Rectangle 3735" width="40.133" height="0.933" transform="translate(0 64.361)" fill="#e25851"/>
            <rect id="Rectangle_3736" data-name="Rectangle 3736" width="40.133" height="0.933" transform="translate(0 48.196)" fill="#e25851"/>
            <rect id="Rectangle_3737" data-name="Rectangle 3737" width="40.133" height="0.933" transform="translate(0 32.031)" fill="#e25851"/>
            <rect id="Rectangle_3738" data-name="Rectangle 3738" width="40" height="1" transform="translate(0.2 16)" fill="#e25851"/>
            <rect id="Rectangle_3739" data-name="Rectangle 3739" width="5.628" height="3.079" transform="translate(29.134 13.79) rotate(180)" fill="#fff"/>
            <rect id="Rectangle_3740" data-name="Rectangle 3740" width="5.628" height="3.079" transform="translate(29.134 9.79) rotate(180)" fill="#91ba83"/>
            <rect id="Rectangle_3741" data-name="Rectangle 3741" width="5.628" height="3.079" transform="translate(29.134 5.791) rotate(180)" fill="#fff"/>
            <rect id="Rectangle_3742" data-name="Rectangle 3742" width="5.628" height="3.079" transform="translate(35.682 13.79) rotate(180)" fill="#fff"/>
            <rect id="Rectangle_3743" data-name="Rectangle 3743" width="5.628" height="3.079" transform="translate(35.682 9.79) rotate(180)" fill="#fff"/>
            <rect id="Rectangle_3744" data-name="Rectangle 3744" width="5.628" height="3.079" transform="translate(35.682 5.791) rotate(180)" fill="#91ba83"/>
            <path id="Path_14408" data-name="Path 14408" d="M164.986,221.617h-13.48a1.54,1.54,0,0,0-1.539,1.54h0a1.54,1.54,0,0,0,1.539,1.54h13.48a1.54,1.54,0,0,0,1.539-1.54h0A1.54,1.54,0,0,0,164.986,221.617Z" transform="translate(-144.434 -194.741)" fill="#fff"/>
            <rect id="Rectangle_3745" data-name="Rectangle 3745" width="5.628" height="3.079" transform="translate(29.134 29.955) rotate(180)" fill="#fff"/>
            <rect id="Rectangle_3746" data-name="Rectangle 3746" width="5.628" height="3.079" transform="translate(29.134 25.956) rotate(180)" fill="#fff"/>
            <rect id="Rectangle_3747" data-name="Rectangle 3747" width="5.628" height="3.079" transform="translate(29.134 21.956) rotate(180)" fill="#91ba83"/>
            <rect id="Rectangle_3748" data-name="Rectangle 3748" width="5.628" height="3.079" transform="translate(35.682 29.955) rotate(180)" fill="#fff"/>
            <rect id="Rectangle_3749" data-name="Rectangle 3749" width="5.628" height="3.079" transform="translate(35.682 25.956) rotate(180)" fill="#fff"/>
            <rect id="Rectangle_3750" data-name="Rectangle 3750" width="5.628" height="3.079" transform="translate(35.682 21.956) rotate(180)" fill="#fff"/>
            <rect id="Rectangle_3751" data-name="Rectangle 3751" width="5.628" height="3.079" transform="translate(29.134 46.12) rotate(180)" fill="#fff"/>
            <rect id="Rectangle_3752" data-name="Rectangle 3752" width="5.628" height="3.079" transform="translate(29.134 42.12) rotate(180)" fill="#91ba83"/>
            <rect id="Rectangle_3753" data-name="Rectangle 3753" width="5.628" height="3.079" transform="translate(29.134 38.12) rotate(180)" fill="#fff"/>
            <rect id="Rectangle_3754" data-name="Rectangle 3754" width="5.628" height="3.079" transform="translate(35.682 46.12) rotate(180)" fill="#fff"/>
            <rect id="Rectangle_3755" data-name="Rectangle 3755" width="5.628" height="3.079" transform="translate(35.682 42.12) rotate(180)" fill="#fff"/>
            <rect id="Rectangle_3756" data-name="Rectangle 3756" width="5.628" height="3.079" transform="translate(35.682 38.12) rotate(180)" fill="#91ba83"/>
            <rect id="Rectangle_3758" data-name="Rectangle 3758" width="5.628" height="3.079" transform="translate(29.134 62.285) rotate(180)" fill="#fff"/>
            <rect id="Rectangle_3759" data-name="Rectangle 3759" width="5.628" height="3.079" transform="translate(29.134 58.285) rotate(180)" fill="#91ba83"/>
            <rect id="Rectangle_3760" data-name="Rectangle 3760" width="5.628" height="3.079" transform="translate(29.134 54.286) rotate(180)" fill="#fff"/>
            <rect id="Rectangle_3761" data-name="Rectangle 3761" width="5.628" height="3.079" transform="translate(35.682 62.285) rotate(180)" fill="#91ba83"/>
            <rect id="Rectangle_3762" data-name="Rectangle 3762" width="5.628" height="3.079" transform="translate(35.682 58.285) rotate(180)" fill="#fff"/>
            <rect id="Rectangle_3763" data-name="Rectangle 3763" width="5.628" height="3.079" transform="translate(35.682 54.286) rotate(180)" fill="#91ba83"/>
            <g id="Group_13156" data-name="Group 13156" transform="translate(5.533 2.712)">
              <path id="Path_14405" data-name="Path 14405" d="M164.986,204.3h-13.48a1.539,1.539,0,0,0-1.539,1.54h0a1.539,1.539,0,0,0,1.539,1.539h13.48a1.539,1.539,0,0,0,1.539-1.539h0A1.539,1.539,0,0,0,164.986,204.3Z" transform="translate(-149.967 -196.298)" fill="#fad8b0"/>
              <path id="Path_14406" data-name="Path 14406" d="M164.986,200.012h-13.48a1.54,1.54,0,0,0-1.539,1.54h0a1.54,1.54,0,0,0,1.539,1.54h13.48a1.54,1.54,0,0,0,1.539-1.54h0A1.54,1.54,0,0,0,164.986,200.012Z" transform="translate(-149.967 -196.013)" fill="#fad8b0"/>
              <path id="Path_14407" data-name="Path 14407" d="M164.986,195.727h-13.48a1.539,1.539,0,0,0-1.539,1.539h0a1.539,1.539,0,0,0,1.539,1.54h13.48a1.539,1.539,0,0,0,1.539-1.54h0A1.539,1.539,0,0,0,164.986,195.727Z" transform="translate(-149.967 -195.727)" fill="#fad8b0"/>
              <path id="Path_14409" data-name="Path 14409" d="M164.986,217.332h-13.48a1.539,1.539,0,0,0-1.539,1.539h0a1.54,1.54,0,0,0,1.539,1.54h13.48a1.54,1.54,0,0,0,1.539-1.54h0A1.539,1.539,0,0,0,164.986,217.332Z" transform="translate(-149.967 -197.167)" fill="#fad8b0"/>
              <path id="Path_14410" data-name="Path 14410" d="M164.986,213.046h-13.48a1.54,1.54,0,0,0-1.539,1.54h0a1.54,1.54,0,0,0,1.539,1.54h13.48a1.54,1.54,0,0,0,1.539-1.54h0A1.54,1.54,0,0,0,164.986,213.046Z" transform="translate(-149.967 -196.882)" fill="#fad8b0"/>
              <path id="Path_14411" data-name="Path 14411" d="M164.986,238.937h-13.48a1.539,1.539,0,0,0-1.539,1.539h0a1.54,1.54,0,0,0,1.539,1.54h13.48a1.54,1.54,0,0,0,1.539-1.54h0A1.539,1.539,0,0,0,164.986,238.937Z" transform="translate(-149.967 -198.608)" fill="#fad8b0"/>
              <path id="Path_14412" data-name="Path 14412" d="M164.986,234.651h-13.48a1.54,1.54,0,0,0-1.539,1.54h0a1.54,1.54,0,0,0,1.539,1.54h13.48a1.54,1.54,0,0,0,1.539-1.54h0A1.54,1.54,0,0,0,164.986,234.651Z" transform="translate(-149.967 -198.322)" fill="#fad8b0"/>
              <path id="Path_14413" data-name="Path 14413" d="M164.986,230.366h-13.48a1.539,1.539,0,0,0-1.539,1.539h0a1.54,1.54,0,0,0,1.539,1.54h13.48a1.54,1.54,0,0,0,1.539-1.54h0A1.539,1.539,0,0,0,164.986,230.366Z" transform="translate(-149.967 -198.036)" fill="#fad8b0"/>
              <path id="Path_14414" data-name="Path 14414" d="M164.986,256.256h-13.48a1.54,1.54,0,0,0-1.539,1.54h0a1.539,1.539,0,0,0,1.539,1.539h13.48a1.539,1.539,0,0,0,1.539-1.539h0A1.54,1.54,0,0,0,164.986,256.256Z" transform="translate(-149.967 -199.762)" fill="#fad8b0"/>
              <rect id="Rectangle_3757" data-name="Rectangle 3757" width="16.559" height="3.079" rx="1.54" transform="translate(0 52.494)" fill="#fad8b0"/>
              <path id="Path_14415" data-name="Path 14415" d="M164.986,247.685h-13.48a1.54,1.54,0,0,0-1.539,1.54h0a1.54,1.54,0,0,0,1.539,1.54h13.48a1.54,1.54,0,0,0,1.539-1.54h0A1.54,1.54,0,0,0,164.986,247.685Z" transform="translate(-149.967 -199.191)" fill="#fad8b0"/>
              <path id="Path_14416" data-name="Path 14416" d="M164.986,273.576h-13.48a1.539,1.539,0,0,0-1.539,1.539h0a1.54,1.54,0,0,0,1.539,1.54h13.48a1.54,1.54,0,0,0,1.539-1.54h0A1.539,1.539,0,0,0,164.986,273.576Z" transform="translate(-149.967 -200.917)" fill="#fad8b0"/>
              <path id="Path_14417" data-name="Path 14417" d="M164.986,269.29h-13.48a1.54,1.54,0,0,0-1.539,1.54h0a1.54,1.54,0,0,0,1.539,1.54h13.48a1.539,1.539,0,0,0,1.539-1.54h0A1.54,1.54,0,0,0,164.986,269.29Z" transform="translate(-149.967 -200.631)" fill="#fad8b0"/>
              <path id="Path_14418" data-name="Path 14418" d="M164.986,265.005h-13.48a1.539,1.539,0,0,0-1.539,1.539h0a1.54,1.54,0,0,0,1.539,1.54h13.48a1.539,1.539,0,0,0,1.539-1.54h0A1.539,1.539,0,0,0,164.986,265.005Z" transform="translate(-149.967 -200.346)" fill="#fad8b0"/>
            </g>
            <rect id="Rectangle_3764" data-name="Rectangle 3764" width="5.628" height="3.079" transform="translate(29.134 78.45) rotate(180)" fill="#91ba83"/>
            <rect id="Rectangle_3765" data-name="Rectangle 3765" width="5.628" height="3.079" transform="translate(29.134 74.45) rotate(180)" fill="#fff"/>
            <rect id="Rectangle_3766" data-name="Rectangle 3766" width="5.628" height="3.079" transform="translate(29.134 70.45) rotate(180)" fill="#fff"/>
            <rect id="Rectangle_3767" data-name="Rectangle 3767" width="5.628" height="3.079" transform="translate(35.682 78.45) rotate(180)" fill="#fff"/>
            <rect id="Rectangle_3768" data-name="Rectangle 3768" width="5.628" height="3.079" transform="translate(35.682 74.45) rotate(180)" fill="#fff"/>
            <rect id="Rectangle_3769" data-name="Rectangle 3769" width="5.628" height="3.079" transform="translate(35.682 70.45) rotate(180)" fill="#91ba83"/>
          </g>
          <g id="Group_13153" data-name="Group 13153" transform="translate(49.467)">
            <path id="Rectangle_3806" data-name="Rectangle 3806" d="M5,0H24a0,0,0,0,1,0,0V104a0,0,0,0,1,0,0H5a5,5,0,0,1-5-5V5A5,5,0,0,1,5,0Z" transform="translate(68.733 104.4) rotate(180)" fill="#75a764"/>
            <rect id="Rectangle_3807" data-name="Rectangle 3807" width="53" height="104" rx="5" transform="translate(-0.267 0.4)" fill="#91ba83"/>
            <rect id="Rectangle_3808" data-name="Rectangle 3808" width="51.598" height="0.97" transform="translate(0.571 83.037)" fill="#75a764"/>
            <rect id="Rectangle_3809" data-name="Rectangle 3809" width="51.598" height="0.97" transform="translate(0.571 62.339)" fill="#75a764"/>
            <rect id="Rectangle_3810" data-name="Rectangle 3810" width="51.598" height="0.97" transform="translate(0.571 41.641)" fill="#75a764"/>
            <rect id="Rectangle_3811" data-name="Rectangle 3811" width="51.598" height="0.97" transform="translate(0.571 20.943)" fill="#75a764"/>
            <path id="Path_14434" data-name="Path 14434" d="M280.842,183.067h-17.26a1.97,1.97,0,0,0-1.971,1.971h0a1.971,1.971,0,0,0,1.971,1.971h17.26a1.971,1.971,0,0,0,1.971-1.971h0A1.971,1.971,0,0,0,280.842,183.067Z" transform="translate(-254.544 -168.838)" fill="#fad8b0"/>
            <path id="Path_14435" data-name="Path 14435" d="M280.842,177.579h-17.26a1.971,1.971,0,0,0-1.971,1.972h0a1.971,1.971,0,0,0,1.971,1.971h17.26a1.972,1.972,0,0,0,1.971-1.971h0A1.972,1.972,0,0,0,280.842,177.579Z" transform="translate(-254.544 -168.472)" fill="#fad8b0"/>
            <path id="Path_14436" data-name="Path 14436" d="M280.842,172.092h-17.26a1.971,1.971,0,0,0-1.971,1.972h0a1.971,1.971,0,0,0,1.971,1.971h17.26a1.972,1.972,0,0,0,1.971-1.971h0A1.972,1.972,0,0,0,280.842,172.092Z" transform="translate(-254.544 -168.106)" fill="#fad8b0"/>
            <rect id="Rectangle_3812" data-name="Rectangle 3812" width="7.206" height="3.943" transform="translate(37.287 90.721) rotate(180)" fill="#fff"/>
            <rect id="Rectangle_3813" data-name="Rectangle 3813" width="7.206" height="3.943" transform="translate(37.287 95.842) rotate(180)" fill="#ff6d66"/>
            <rect id="Rectangle_3814" data-name="Rectangle 3814" width="7.206" height="3.943" transform="translate(37.287 100.964) rotate(180)" fill="#fff"/>
            <rect id="Rectangle_3815" data-name="Rectangle 3815" width="7.206" height="3.943" transform="translate(45.672 90.721) rotate(180)" fill="#fff"/>
            <rect id="Rectangle_3816" data-name="Rectangle 3816" width="7.206" height="3.943" transform="translate(45.672 95.842) rotate(180)" fill="#fff"/>
            <rect id="Rectangle_3817" data-name="Rectangle 3817" width="7.206" height="3.943" transform="translate(45.672 100.964) rotate(180)" fill="#ff6d66"/>
            <path id="Path_14437" data-name="Path 14437" d="M280.842,205.243h-17.26a1.971,1.971,0,0,0-1.971,1.971h0a1.971,1.971,0,0,0,1.971,1.972h17.26a1.972,1.972,0,0,0,1.971-1.972h0A1.972,1.972,0,0,0,280.842,205.243Z" transform="translate(-254.544 -170.317)" fill="#fff"/>
            <path id="Path_14438" data-name="Path 14438" d="M280.842,199.756h-17.26a1.971,1.971,0,0,0-1.971,1.971h0a1.97,1.97,0,0,0,1.971,1.971h17.26a1.971,1.971,0,0,0,1.971-1.971h0A1.972,1.972,0,0,0,280.842,199.756Z" transform="translate(-254.544 -169.951)" fill="#fad8b0"/>
            <path id="Path_14439" data-name="Path 14439" d="M280.842,194.269h-17.26a1.971,1.971,0,0,0-1.971,1.971h0a1.97,1.97,0,0,0,1.971,1.971h17.26a1.971,1.971,0,0,0,1.971-1.971h0A1.971,1.971,0,0,0,280.842,194.269Z" transform="translate(-254.544 -169.585)" fill="#fad8b0"/>
            <rect id="Rectangle_3818" data-name="Rectangle 3818" width="7.206" height="3.943" transform="translate(37.287 70.023) rotate(180)" fill="#fff"/>
            <rect id="Rectangle_3819" data-name="Rectangle 3819" width="7.206" height="3.943" transform="translate(37.287 75.144) rotate(180)" fill="#fff"/>
            <rect id="Rectangle_3820" data-name="Rectangle 3820" width="7.206" height="3.943" transform="translate(37.287 80.266) rotate(180)" fill="#ff6d66"/>
            <rect id="Rectangle_3821" data-name="Rectangle 3821" width="7.206" height="3.943" transform="translate(45.672 70.023) rotate(180)" fill="#ff6d66"/>
            <rect id="Rectangle_3822" data-name="Rectangle 3822" width="7.206" height="3.943" transform="translate(45.672 75.144) rotate(180)" fill="#fff"/>
            <rect id="Rectangle_3823" data-name="Rectangle 3823" width="7.206" height="3.943" transform="translate(45.672 80.266) rotate(180)" fill="#ff6d66"/>
            <path id="Path_14440" data-name="Path 14440" d="M280.842,227.42h-17.26a1.971,1.971,0,0,0-1.971,1.971h0a1.971,1.971,0,0,0,1.971,1.971h17.26a1.972,1.972,0,0,0,1.971-1.971h0A1.971,1.971,0,0,0,280.842,227.42Z" transform="translate(-254.544 -171.795)" fill="#fad8b0"/>
            <path id="Path_14441" data-name="Path 14441" d="M280.842,221.932h-17.26a1.971,1.971,0,0,0-1.971,1.972h0a1.971,1.971,0,0,0,1.971,1.971h17.26a1.972,1.972,0,0,0,1.971-1.971h0A1.972,1.972,0,0,0,280.842,221.932Z" transform="translate(-254.544 -171.429)" fill="#fad8b0"/>
            <path id="Path_14442" data-name="Path 14442" d="M280.842,216.445h-17.26a1.971,1.971,0,0,0-1.971,1.971h0a1.971,1.971,0,0,0,1.971,1.972h17.26a1.972,1.972,0,0,0,1.971-1.972h0A1.972,1.972,0,0,0,280.842,216.445Z" transform="translate(-254.544 -171.063)" fill="#fad8b0"/>
            <rect id="Rectangle_3824" data-name="Rectangle 3824" width="7.206" height="3.943" transform="translate(37.287 49.325) rotate(180)" fill="#ff6d66"/>
            <rect id="Rectangle_3825" data-name="Rectangle 3825" width="7.206" height="3.943" transform="translate(37.287 54.446) rotate(180)" fill="#fff"/>
            <rect id="Rectangle_3826" data-name="Rectangle 3826" width="7.206" height="3.943" transform="translate(37.287 59.567) rotate(180)" fill="#fff"/>
            <rect id="Rectangle_3827" data-name="Rectangle 3827" width="7.206" height="3.943" transform="translate(45.672 49.325) rotate(180)" fill="#fff"/>
            <rect id="Rectangle_3828" data-name="Rectangle 3828" width="7.206" height="3.943" transform="translate(45.672 54.446) rotate(180)" fill="#fff"/>
            <rect id="Rectangle_3829" data-name="Rectangle 3829" width="7.206" height="3.943" transform="translate(45.672 59.567) rotate(180)" fill="#ff6d66"/>
            <path id="Path_14443" data-name="Path 14443" d="M280.842,249.6h-17.26a1.971,1.971,0,0,0-1.971,1.971h0a1.971,1.971,0,0,0,1.971,1.972h17.26a1.972,1.972,0,0,0,1.971-1.972h0A1.972,1.972,0,0,0,280.842,249.6Z" transform="translate(-254.544 -173.273)" fill="#fad8b0"/>
            <path id="Path_14444" data-name="Path 14444" d="M280.842,244.109h-17.26a1.971,1.971,0,0,0-1.971,1.971h0a1.97,1.97,0,0,0,1.971,1.971h17.26a1.971,1.971,0,0,0,1.971-1.971h0A1.972,1.972,0,0,0,280.842,244.109Z" transform="translate(-254.544 -172.908)" fill="#fad8b0"/>
            <path id="Path_14445" data-name="Path 14445" d="M280.842,238.622h-17.26a1.971,1.971,0,0,0-1.971,1.971h0a1.971,1.971,0,0,0,1.971,1.971h17.26a1.972,1.972,0,0,0,1.971-1.971h0A1.971,1.971,0,0,0,280.842,238.622Z" transform="translate(-254.544 -172.542)" fill="#fad8b0"/>
            <rect id="Rectangle_3830" data-name="Rectangle 3830" width="7.206" height="3.943" transform="translate(37.287 28.627) rotate(180)" fill="#fff"/>
            <rect id="Rectangle_3831" data-name="Rectangle 3831" width="7.206" height="3.943" transform="translate(37.287 33.748) rotate(180)" fill="#ff6d66"/>
            <rect id="Rectangle_3832" data-name="Rectangle 3832" width="7.206" height="3.943" transform="translate(37.287 38.87) rotate(180)" fill="#fff"/>
            <rect id="Rectangle_3833" data-name="Rectangle 3833" width="7.206" height="3.943" transform="translate(45.672 28.627) rotate(180)" fill="#ff6d66"/>
            <rect id="Rectangle_3834" data-name="Rectangle 3834" width="7.206" height="3.943" transform="translate(45.672 33.748) rotate(180)" fill="#fff"/>
            <rect id="Rectangle_3835" data-name="Rectangle 3835" width="7.206" height="3.943" transform="translate(45.672 38.87) rotate(180)" fill="#fff"/>
            <path id="Path_14446" data-name="Path 14446" d="M280.842,271.772h-17.26a1.971,1.971,0,0,0-1.971,1.972h0a1.971,1.971,0,0,0,1.971,1.971h17.26a1.972,1.972,0,0,0,1.971-1.971h0A1.972,1.972,0,0,0,280.842,271.772Z" transform="translate(-254.544 -174.752)" fill="#fad8b0"/>
            <path id="Path_14447" data-name="Path 14447" d="M280.842,266.285h-17.26a1.971,1.971,0,0,0-1.971,1.972h0a1.971,1.971,0,0,0,1.971,1.971h17.26a1.972,1.972,0,0,0,1.971-1.971h0A1.972,1.972,0,0,0,280.842,266.285Z" transform="translate(-254.544 -174.386)" fill="#fad8b0"/>
            <rect id="Rectangle_3836" data-name="Rectangle 3836" width="21.203" height="3.943" rx="1.971" transform="translate(7.067 86.778)" fill="#fad8b0"/>
            <rect id="Rectangle_3837" data-name="Rectangle 3837" width="7.206" height="3.943" transform="translate(37.287 7.929) rotate(180)" fill="#ff6d66"/>
            <rect id="Rectangle_3838" data-name="Rectangle 3838" width="7.206" height="3.943" transform="translate(37.287 13.05) rotate(180)" fill="#fff"/>
            <rect id="Rectangle_3839" data-name="Rectangle 3839" width="7.206" height="3.943" transform="translate(37.287 18.172) rotate(180)" fill="#fff"/>
            <rect id="Rectangle_3840" data-name="Rectangle 3840" width="7.206" height="3.943" transform="translate(45.672 7.929) rotate(180)" fill="#fff"/>
            <rect id="Rectangle_3841" data-name="Rectangle 3841" width="7.206" height="3.943" transform="translate(45.672 13.05) rotate(180)" fill="#fff"/>
            <rect id="Rectangle_3842" data-name="Rectangle 3842" width="7.206" height="3.943" transform="translate(45.672 18.172) rotate(180)" fill="#ff6d66"/>
          </g>
        </g>
        <g id="Group_13709" data-name="Group 13709" transform="translate(29.866 91.467)">
          <path id="Union_311" data-name="Union 311" d="M3.692,22.439A5.565,5.565,0,0,1,.1,17.71a7.078,7.078,0,0,1,.634-4.445A6.771,6.771,0,0,1,5.182,9.85a12.7,12.7,0,0,1,4.865-.221,27.389,27.389,0,0,1,3.063.561c.121.029.217.061.214-.13a19.4,19.4,0,0,0-.2-3.659,3.369,3.369,0,0,0-2.9-2.846,11.069,11.069,0,0,0-5.434.4c-.646.2-1.281.428-1.909.687a6,6,0,0,1-.772.261c-.381.1-.637-.06-.666-.459a10.376,10.376,0,0,1,.015-1.989A1.053,1.053,0,0,1,2.1,1.678,12.146,12.146,0,0,1,4.826.6,14.524,14.524,0,0,1,11.978.323,6.046,6.046,0,0,1,15.9,2.789,8.093,8.093,0,0,1,17.17,6.567,16.934,16.934,0,0,1,17.238,8.4c0,2.418-.015,4.838.01,7.256a10.515,10.515,0,0,0,.2,2.1,9.436,9.436,0,0,0,.86,2.181.923.923,0,0,1-.338,1.38c-.474.334-.95.663-1.435.982a.958.958,0,0,1-1.4-.188A7.968,7.968,0,0,1,13.9,20.228c-.1-.2-.2-.4-.316-.648a9.368,9.368,0,0,1-2.624,2.249A8.934,8.934,0,0,1,6.66,23,8.3,8.3,0,0,1,3.692,22.439Zm3.473-9.848A3.369,3.369,0,0,0,4.3,15.208a5.159,5.159,0,0,0-.081,1.548,2.907,2.907,0,0,0,2.5,2.91,6.27,6.27,0,0,0,4.308-.842,4.326,4.326,0,0,0,2.191-3.047,15.367,15.367,0,0,0,.155-2.512c0-.222-.065-.3-.268-.346a19.917,19.917,0,0,0-4.2-.5A8.815,8.815,0,0,0,7.165,12.591Zm46.12,9.288a5.189,5.189,0,0,1-.856-.44,1.36,1.36,0,0,1-.683-1.213c-.007-.433-.012-.868,0-1.3.02-.618.326-.843.926-.659.783.24,1.514.623,2.307.839a13.237,13.237,0,0,0,6.138.353,4.329,4.329,0,0,0,1.777-.788,2.613,2.613,0,0,0-.235-4.29,13.171,13.171,0,0,0-2.684-1.062c-1.332-.426-2.7-.756-3.991-1.3a6.06,6.06,0,0,1-3.792-4.154,5.535,5.535,0,0,1,2.037-6A8.459,8.459,0,0,1,59.022.055c.373-.032.748-.04,1.04-.055a15.719,15.719,0,0,1,4.944.854c.2.068.384.155.572.239a1.732,1.732,0,0,1,1.193,1.89c-.036.348.025.7-.036,1.05a.538.538,0,0,1-.73.5c-.572-.124-1.075-.435-1.629-.612a11.681,11.681,0,0,0-5.907-.392,4.013,4.013,0,0,0-.855.283,2.341,2.341,0,0,0-1.5,1.969,2.4,2.4,0,0,0,1.1,2.43A9.944,9.944,0,0,0,59.675,9.3c1.507.5,3.051.881,4.519,1.491a5.641,5.641,0,0,1,3.466,3.387,6.192,6.192,0,0,1-2.766,7.4,9.722,9.722,0,0,1-4.113,1.335A15.225,15.225,0,0,1,59.139,23,16.346,16.346,0,0,1,53.285,21.879Zm-13.418-.367c-.881-.012-1.2-.262-1.4-1.115q-.848-3.5-1.691-7-1.021-4.228-2.047-8.458c-.012-.048-.035-.092-.08-.206-.228.945-.442,1.827-.655,2.707L30.909,20.218a.147.147,0,0,1-.005.031c-.266,1.04-.507,1.235-1.581,1.24-.732,0-1.465-.01-2.2-.017a1.048,1.048,0,0,1-1.038-.725c-.34-.868-.572-1.768-.844-2.657Q22.7,9.817,20.175,1.54A6.08,6.08,0,0,1,19.97.708a.545.545,0,0,1,.59-.7c.492-.005.988,0,1.482,0,.371,0,.741,0,1.113,0a1.037,1.037,0,0,1,1.072.754c.317.876.5,1.791.73,2.689q1.754,6.81,3.489,13.624l.064.009c.136-.561.273-1.122.406-1.683q1.677-7.067,3.352-14.133C32.52.21,32.788,0,33.894,0c.679,0,1.36-.005,2.04.013a.99.99,0,0,1,1.092.844c.25.906.456,1.823.673,2.738q1.614,6.768,3.218,13.535a.173.173,0,0,0,.1.154c.155-.592.31-1.173.461-1.755Q43.327,8.416,45.181,1.3C45.469.2,45.73,0,46.858,0c.661,0,1.32,0,1.979,0,.546,0,.727.2.676.74a3.154,3.154,0,0,1-.131.628q-2.964,9.441-5.933,18.881c-.339,1.079-.6,1.262-1.727,1.262l-1.113,0Q40.238,21.516,39.867,21.513Z" transform="translate(2.467 0.067)" fill="#073570"/>
          <path id="Union_312" data-name="Union 312" d="M22.5,14.273A53.755,53.755,0,0,1,4.3,5.811C2.942,4.834,1.636,3.792.373,2.7.343,2.671.314,2.644.285,2.616A.7.7,0,0,1,.1,1.7a.707.707,0,0,1,.943-.13c.6.306,1.181.639,1.776.95A71.829,71.829,0,0,0,15.6,7.717a76.133,76.133,0,0,0,10.431,2.342,74.585,74.585,0,0,0,13.084.826c2.285-.055,4.563-.239,6.833-.52a74.13,74.13,0,0,0,18.895-4.91,1.371,1.371,0,0,1,1.241.017.914.914,0,0,1,.339,1.36,1.957,1.957,0,0,1-.526.5,44.969,44.969,0,0,1-12.3,5.944A57.772,57.772,0,0,1,43.685,15.5a55.567,55.567,0,0,1-6.376.5A58.33,58.33,0,0,1,22.5,14.273Zm45.636-.564c-.257-.2-.153-.473-.054-.722.633-1.589,1.265-3.179,1.76-4.817a16.239,16.239,0,0,0,.628-2.759A5.259,5.259,0,0,0,70.5,4.53a1.309,1.309,0,0,0-.978-1.281A7.435,7.435,0,0,0,67.4,2.927a42.37,42.37,0,0,0-6.428.414,2.528,2.528,0,0,1-.66.028.4.4,0,0,1-.337-.579,1.29,1.29,0,0,1,.541-.6,12.93,12.93,0,0,1,5-1.915A17.363,17.363,0,0,1,68.756,0a13.958,13.958,0,0,1,3.876.462c1.115.319,1.339.594,1.365,1.756a14.84,14.84,0,0,1-1.091,5.526,14.094,14.094,0,0,1-3.316,5.3,5.955,5.955,0,0,1-.7.591.833.833,0,0,1-.461.18A.469.469,0,0,1,68.135,13.71Z" transform="translate(0.467 27.067)" fill="#f9865f"/>
        </g>
      </g>
      <g id="Group_13161" data-name="Group 13161" transform="translate(81.2 268.867)">
        <path id="Path_14362" data-name="Path 14362" d="M120.493,351.394l1.858-32.353a3.675,3.675,0,0,1,3.627-3.424h54.735a3.2,3.2,0,0,1,3.235,3.424l-1.857,32.353a3.676,3.676,0,0,1-3.628,3.423H123.728A3.2,3.2,0,0,1,120.493,351.394Z" transform="translate(-120.487 -315.617)" fill="#f9865f"/>
        <path id="Path_14364" data-name="Path 14364" d="M178.106,352.841H123.188a1.389,1.389,0,0,1-1.4-1.492l1.846-32.482a1.6,1.6,0,0,1,1.567-1.492h54.917a1.39,1.39,0,0,1,1.4,1.492l-1.847,32.482A1.594,1.594,0,0,1,178.106,352.841Z" transform="translate(-119.923 -315.507)" fill="#383838" opacity="0.9"/>
        <g id="Group_13160" data-name="Group 13160" transform="translate(14 43.867)">
          <rect id="Rectangle_3848" data-name="Rectangle 3848" width="7" height="28" rx="3.5" transform="translate(35.8 0.267) rotate(90)" fill="#ff6d66" opacity="0.5"/>
          <rect id="Rectangle_3723" data-name="Rectangle 3723" width="7" height="28" rx="3.5" transform="translate(27.8 0.267) rotate(90)" fill="#ff6d66"/>
        </g>
        <line id="Line_237" data-name="Line 237" x2="11" transform="translate(8.8 6.133)" fill="none" stroke="#ff6d66" stroke-linecap="round" stroke-miterlimit="10" stroke-width="2"/>
        <line id="Line_269" data-name="Line 269" x2="11" transform="translate(8.8 19.133)" fill="none" stroke="#ff6d66" stroke-linecap="round" stroke-miterlimit="10" stroke-width="2"/>
        <line id="Line_275" data-name="Line 275" x2="11" transform="translate(8.8 33.133)" fill="none" stroke="#ff6d66" stroke-linecap="round" stroke-miterlimit="10" stroke-width="2"/>
        <line id="Line_238" data-name="Line 238" x2="16" transform="translate(25.8 6.133)" fill="none" stroke="#7595ec" stroke-linecap="round" stroke-miterlimit="10" stroke-width="2"/>
        <line id="Line_270" data-name="Line 270" x2="16" transform="translate(25.8 19.133)" fill="none" stroke="#7595ec" stroke-linecap="round" stroke-miterlimit="10" stroke-width="2"/>
        <line id="Line_276" data-name="Line 276" x2="16" transform="translate(25.8 33.133)" fill="none" stroke="#7595ec" stroke-linecap="round" stroke-miterlimit="10" stroke-width="2"/>
        <line id="Line_239" data-name="Line 239" x2="6" transform="translate(48.8 6.133)" fill="none" stroke="#0fd7ad" stroke-linecap="round" stroke-miterlimit="10" stroke-width="2"/>
        <line id="Line_274" data-name="Line 274" x2="6" transform="translate(48.8 19.133)" fill="none" stroke="#0fd7ad" stroke-linecap="round" stroke-miterlimit="10" stroke-width="2"/>
        <line id="Line_277" data-name="Line 277" x2="6" transform="translate(48.8 33.133)" fill="none" stroke="#0fd7ad" stroke-linecap="round" stroke-miterlimit="10" stroke-width="2"/>
        <line id="Line_240" data-name="Line 240" x2="11" transform="translate(7.8 13.133)" fill="none" stroke="#0fd7ad" stroke-linecap="round" stroke-miterlimit="10" stroke-width="2"/>
        <line id="Line_271" data-name="Line 271" x2="11" transform="translate(7.8 26.133)" fill="none" stroke="#0fd7ad" stroke-linecap="round" stroke-miterlimit="10" stroke-width="2"/>
        <line id="Line_241" data-name="Line 241" x2="15" transform="translate(23.8 13.133)" fill="none" stroke="#f9865f" stroke-linecap="round" stroke-miterlimit="10" stroke-width="2"/>
        <line id="Line_272" data-name="Line 272" x2="15" transform="translate(23.8 26.133)" fill="none" stroke="#f9865f" stroke-linecap="round" stroke-miterlimit="10" stroke-width="2"/>
        <line id="Line_242" data-name="Line 242" x2="6" transform="translate(45.8 13.133)" fill="none" stroke="#ff6d66" stroke-linecap="round" stroke-miterlimit="10" stroke-width="2"/>
        <line id="Line_273" data-name="Line 273" x2="6" transform="translate(45.8 26.133)" fill="none" stroke="#ff6d66" stroke-linecap="round" stroke-miterlimit="10" stroke-width="2"/>
      </g>
      <g id="Group_13162" data-name="Group 13162" transform="translate(180.133 268.867)">
        <path id="Path_14362-2" data-name="Path 14362" d="M120.493,351.394l1.858-32.353a3.675,3.675,0,0,1,3.627-3.424h54.735a3.2,3.2,0,0,1,3.235,3.424l-1.857,32.353a3.676,3.676,0,0,1-3.628,3.423H123.728A3.2,3.2,0,0,1,120.493,351.394Z" transform="translate(-120.487 -315.617)" fill="#7595ec"/>
        <path id="Path_14364-2" data-name="Path 14364" d="M178.106,352.841H123.188a1.389,1.389,0,0,1-1.4-1.492l1.846-32.482a1.6,1.6,0,0,1,1.567-1.492h54.917a1.39,1.39,0,0,1,1.4,1.492l-1.847,32.482A1.594,1.594,0,0,1,178.106,352.841Z" transform="translate(-119.923 -315.507)" fill="#073570" opacity="0.9"/>
        <g id="Group_13160-2" data-name="Group 13160" transform="translate(14 43.867)">
          <rect id="Rectangle_3848-2" data-name="Rectangle 3848" width="7" height="28" rx="3.5" transform="translate(35.867 0.267) rotate(90)" fill="#ff6d66" opacity="0.5"/>
          <rect id="Rectangle_3723-2" data-name="Rectangle 3723" width="7" height="28" rx="3.5" transform="translate(27.867 0.267) rotate(90)" fill="#ff6d66"/>
        </g>
        <line id="Line_237-2" data-name="Line 237" x2="11" transform="translate(8.866 6.133)" fill="none" stroke="#ff6d66" stroke-linecap="round" stroke-miterlimit="10" stroke-width="2"/>
        <line id="Line_269-2" data-name="Line 269" x2="11" transform="translate(8.866 19.133)" fill="none" stroke="#ff6d66" stroke-linecap="round" stroke-miterlimit="10" stroke-width="2"/>
        <line id="Line_275-2" data-name="Line 275" x2="11" transform="translate(8.866 33.133)" fill="none" stroke="#ff6d66" stroke-linecap="round" stroke-miterlimit="10" stroke-width="2"/>
        <line id="Line_238-2" data-name="Line 238" x2="16" transform="translate(25.866 6.133)" fill="none" stroke="#7595ec" stroke-linecap="round" stroke-miterlimit="10" stroke-width="2"/>
        <line id="Line_270-2" data-name="Line 270" x2="16" transform="translate(25.866 19.133)" fill="none" stroke="#7595ec" stroke-linecap="round" stroke-miterlimit="10" stroke-width="2"/>
        <line id="Line_276-2" data-name="Line 276" x2="16" transform="translate(25.866 33.133)" fill="none" stroke="#7595ec" stroke-linecap="round" stroke-miterlimit="10" stroke-width="2"/>
        <line id="Line_239-2" data-name="Line 239" x2="6" transform="translate(48.866 6.133)" fill="none" stroke="#0fd7ad" stroke-linecap="round" stroke-miterlimit="10" stroke-width="2"/>
        <line id="Line_274-2" data-name="Line 274" x2="6" transform="translate(48.866 19.133)" fill="none" stroke="#0fd7ad" stroke-linecap="round" stroke-miterlimit="10" stroke-width="2"/>
        <line id="Line_277-2" data-name="Line 277" x2="6" transform="translate(48.866 33.133)" fill="none" stroke="#0fd7ad" stroke-linecap="round" stroke-miterlimit="10" stroke-width="2"/>
        <line id="Line_240-2" data-name="Line 240" x2="11" transform="translate(7.866 13.133)" fill="none" stroke="#0fd7ad" stroke-linecap="round" stroke-miterlimit="10" stroke-width="2"/>
        <line id="Line_271-2" data-name="Line 271" x2="11" transform="translate(7.866 26.133)" fill="none" stroke="#0fd7ad" stroke-linecap="round" stroke-miterlimit="10" stroke-width="2"/>
        <line id="Line_241-2" data-name="Line 241" x2="15" transform="translate(23.866 13.133)" fill="none" stroke="#f9865f" stroke-linecap="round" stroke-miterlimit="10" stroke-width="2"/>
        <line id="Line_272-2" data-name="Line 272" x2="15" transform="translate(23.866 26.133)" fill="none" stroke="#f9865f" stroke-linecap="round" stroke-miterlimit="10" stroke-width="2"/>
        <line id="Line_242-2" data-name="Line 242" x2="6" transform="translate(45.866 13.133)" fill="none" stroke="#ff6d66" stroke-linecap="round" stroke-miterlimit="10" stroke-width="2"/>
        <line id="Line_273-2" data-name="Line 273" x2="6" transform="translate(45.866 26.133)" fill="none" stroke="#ff6d66" stroke-linecap="round" stroke-miterlimit="10" stroke-width="2"/>
      </g>
      <g id="Group_13163" data-name="Group 13163" transform="translate(279.067 268.867)">
        <path id="Path_14362-3" data-name="Path 14362" d="M120.493,351.394l1.858-32.353a3.675,3.675,0,0,1,3.627-3.424h54.735a3.2,3.2,0,0,1,3.235,3.424l-1.857,32.353a3.676,3.676,0,0,1-3.628,3.423H123.728A3.2,3.2,0,0,1,120.493,351.394Z" transform="translate(-120.487 -315.617)" fill="#91ba83"/>
        <path id="Path_14364-3" data-name="Path 14364" d="M178.106,352.841H123.188a1.389,1.389,0,0,1-1.4-1.492l1.846-32.482a1.6,1.6,0,0,1,1.567-1.492h54.917a1.39,1.39,0,0,1,1.4,1.492l-1.847,32.482A1.594,1.594,0,0,1,178.106,352.841Z" transform="translate(-119.923 -315.507)" fill="#4a3f3b" opacity="0.9"/>
        <g id="Group_13160-3" data-name="Group 13160" transform="translate(14 43.867)">
          <rect id="Rectangle_3848-3" data-name="Rectangle 3848" width="7" height="28" rx="3.5" transform="translate(35.934 0.267) rotate(90)" fill="#ff6d66" opacity="0.5"/>
          <rect id="Rectangle_3723-3" data-name="Rectangle 3723" width="7" height="28" rx="3.5" transform="translate(27.934 0.267) rotate(90)" fill="#ff6d66"/>
        </g>
        <line id="Line_237-3" data-name="Line 237" x2="12" transform="translate(7.933 6.133)" fill="none" stroke="#ff6d66" stroke-linecap="round" stroke-miterlimit="10" stroke-width="2"/>
        <line id="Line_269-3" data-name="Line 269" x2="12" transform="translate(7.933 19.133)" fill="none" stroke="#ff6d66" stroke-linecap="round" stroke-miterlimit="10" stroke-width="2"/>
        <line id="Line_275-3" data-name="Line 275" x2="12" transform="translate(7.933 33.133)" fill="none" stroke="#ff6d66" stroke-linecap="round" stroke-miterlimit="10" stroke-width="2"/>
        <line id="Line_238-3" data-name="Line 238" x2="16" transform="translate(25.933 6.133)" fill="none" stroke="#7595ec" stroke-linecap="round" stroke-miterlimit="10" stroke-width="2"/>
        <line id="Line_270-3" data-name="Line 270" x2="16" transform="translate(25.933 19.133)" fill="none" stroke="#7595ec" stroke-linecap="round" stroke-miterlimit="10" stroke-width="2"/>
        <line id="Line_276-3" data-name="Line 276" x2="16" transform="translate(25.933 33.133)" fill="none" stroke="#7595ec" stroke-linecap="round" stroke-miterlimit="10" stroke-width="2"/>
        <line id="Line_239-3" data-name="Line 239" x2="6" transform="translate(48.933 6.133)" fill="none" stroke="#0fd7ad" stroke-linecap="round" stroke-miterlimit="10" stroke-width="2"/>
        <line id="Line_274-3" data-name="Line 274" x2="6" transform="translate(48.933 19.133)" fill="none" stroke="#0fd7ad" stroke-linecap="round" stroke-miterlimit="10" stroke-width="2"/>
        <line id="Line_277-3" data-name="Line 277" x2="6" transform="translate(48.933 33.133)" fill="none" stroke="#0fd7ad" stroke-linecap="round" stroke-miterlimit="10" stroke-width="2"/>
        <line id="Line_240-3" data-name="Line 240" x2="11" transform="translate(7.933 13.133)" fill="none" stroke="#0fd7ad" stroke-linecap="round" stroke-miterlimit="10" stroke-width="2"/>
        <line id="Line_271-3" data-name="Line 271" x2="11" transform="translate(7.933 26.133)" fill="none" stroke="#0fd7ad" stroke-linecap="round" stroke-miterlimit="10" stroke-width="2"/>
        <line id="Line_241-3" data-name="Line 241" x2="15" transform="translate(23.933 13.133)" fill="none" stroke="#f9865f" stroke-linecap="round" stroke-miterlimit="10" stroke-width="2"/>
        <line id="Line_272-3" data-name="Line 272" x2="15" transform="translate(23.933 26.133)" fill="none" stroke="#f9865f" stroke-linecap="round" stroke-miterlimit="10" stroke-width="2"/>
        <line id="Line_242-3" data-name="Line 242" x2="6" transform="translate(45.933 13.133)" fill="none" stroke="#ff6d66" stroke-linecap="round" stroke-miterlimit="10" stroke-width="2"/>
        <line id="Line_273-3" data-name="Line 273" x2="6" transform="translate(45.933 26.133)" fill="none" stroke="#ff6d66" stroke-linecap="round" stroke-miterlimit="10" stroke-width="2"/>
      </g>
    </g>
    <path id="Path_14297" data-name="Path 14297" d="M434,185.133H558.793a30.594,30.594,0,0,1,30.45,30.667v6.133h6.09V215.8a36.712,36.712,0,0,0-36.54-36.8H434Z" transform="translate(881.533 231.6)" fill="#7595ec"/>
    <path id="Path_14458" data-name="Path 14458" d="M7.933,0,0,8.4H15.867Z" transform="translate(1308.134 421.8) rotate(-90)" fill="#7595ec"/>
    <ellipse id="_Path_" data-name="&lt;Path&gt;" cx="134.5" cy="10.5" rx="134.5" ry="10.5" transform="translate(1374 608)" fill="#ececec"/>
    <g id="Group_13166" data-name="Group 13166" transform="translate(1540.333 530.067)">
      <g id="Group_13165" data-name="Group 13165" transform="translate(2.8 6.981)">
        <path id="Path_14299" data-name="Path 14299" d="M372.4,330l.336,14.451,1.531,65.368h5.049l1.521-65.368L381.176,330Z" transform="translate(-345.214 -330)" fill="#383838"/>
        <path id="Path_14302" data-name="Path 14302" d="M343.025,409.659l4.665-78.559h7.625l-6.53,78.559Z" transform="translate(-343.025 -330.073)" fill="#383838"/>
        <path id="Path_14305" data-name="Path 14305" d="M404.549,409.659,398.019,331.1h7.625l4.664,78.559Z" transform="translate(-347.153 -330.073)" fill="#383838"/>
      </g>
      <path id="Rectangle_3715" data-name="Rectangle 3715" d="M0,0H62.148a0,0,0,0,1,0,0V5.91a5,5,0,0,1-5,5H5a5,5,0,0,1-5-5V0A0,0,0,0,1,0,0Z" transform="translate(64.948 10.91) rotate(180)" fill="#91ba83"/>
      <rect id="Rectangle_3716" data-name="Rectangle 3716" width="68.133" height="5.455" rx="2" transform="translate(68.133 10.91) rotate(180)" fill="#383838"/>
    </g>
    <path id="Path_14468" data-name="Path 14468" d="M-7430.8-7241.321v-147.466" transform="translate(8919.803 7675.254)" fill="none" stroke="#ff6d66" stroke-linecap="round" stroke-width="2" stroke-dasharray="4"/>
    <g id="Group_13170" data-name="Group 13170" transform="translate(1490.611 375.466)">
      <path id="Path_14312" data-name="Path 14312" d="M346.639,296.47l1.814-11.363,41.683-2.493s4.432,23.648,1.028,29.948c-6.08,11.248-38.843,5.571-48.431,6.677,5.731,23.436,5.17,69.235,5.17,69.235l-13.692,1.045s-10.535-49.351-12.665-72.8C320.108,300.9,333.218,301.289,346.639,296.47Z" transform="translate(-289.761 -164.599)" fill="#073570"/>
      <path id="Path_14317" data-name="Path 14317" d="M312.815,386.167l13.179-3.873s-7.868-44.408-15.848-59.808c.6-.2,1.391-.448,2.371-.737,1.764-.532,4.107-1.195,6.861-1.96,19.151-5.311,57.968-15.269,57.968-15.269l-17.733-16.548s-70.634,10.771-72.1,29.381C286.812,326.3,312.815,386.167,312.815,386.167Z" transform="translate(-287.498 -164.956)" fill="#073570"/>
      <g id="Group_13169" data-name="Group 13169" transform="translate(12.602 0)">
        <path id="Path_14308" data-name="Path 14308" d="M349.617,226.282s-.261.709-.737,1.876c-.485,1.213-1.2,2.921-2.091,4.844-2.147,4.676-5.264,10.6-8.521,13.8a8.778,8.778,0,0,1-2.893,2.016c-3.472,1.335-12.18,1.577-19.955,1.5-7.653-.065-14.42-.467-14.42-.467v-5.889l25.564-6.813s13.477-24.323,21.448-27.925Z" transform="translate(-301 -159.707)" fill="#0991e1"/>
        <path id="Path_14310" data-name="Path 14310" d="M348.155,407.444l-7.435-1.02-1.03-17.674,7.424,1.029Z" transform="translate(-303.579 -171.675)" fill="#f8b58e"/>
        <path id="Path_14313" data-name="Path 14313" d="M350.237,396.239l-16.455,1.083-1.409-7.047,18.079-.84Z" transform="translate(-303.092 -171.72)" fill="#7595ec"/>
        <path id="Path_14314" data-name="Path 14314" d="M329.513,400.489l-7.484.551-4.689-17.071,7.476-.54Z" transform="translate(-302.089 -171.32)" fill="#f8b58e"/>
        <g id="Group_13081" data-name="Group 13081" transform="translate(15.056 227.133)">
          <path id="Path_14315" data-name="Path 14315" d="M321,402.368c0-.007-.125-.013-.126-.021l-.134-.007v0l.132,0c-.026-.112-.38-2.207-1.288-2.706a.861.861,0,0,0-.751-.034.66.66,0,0,0-.454.68,2.733,2.733,0,0,0,1.106,1.519,3.031,3.031,0,0,0-2.1.057.66.66,0,0,0-.253.587.932.932,0,0,0,.469.881,2,2,0,0,0,1.455-.022,9.235,9.235,0,0,0,1.831-.786.1.1,0,0,0,.063-.008c.016-.015.011-.038.021-.057A.148.148,0,0,0,321,402.368Zm-2.246-2.089c-.013-.1.017-.237.249-.332l.081-.029a.5.5,0,0,1,.4.052c.544.291.921,1.422,1.1,2.111l-.168-.051C319.679,401.625,318.819,400.784,318.756,400.279Zm-.982,2.738a.644.644,0,0,1-.287-.566.315.315,0,0,1,.123-.288c.421-.316,1.791-.047,2.779.252C319.168,403.031,318.208,403.255,317.774,403.018Z" transform="translate(-317.132 -399.526)" fill="#17a9fe"/>
        </g>
        <path id="Path_14318" data-name="Path 14318" d="M329.228,388.865l-15.868,4.486-2.846-6.6,17.507-4.587Z" transform="translate(-301.634 -171.236)" fill="#7595ec"/>
        <path id="Path_14319" data-name="Path 14319" d="M314.146,322.239c1.764-.532,4.107-1.195,6.861-1.96-.552-4.517-.561-9.7,1.614-12.339,4.321-5.264,15.437-8.353,21.765-9.473,5.292-.933,23.072-2.791,23.072-2.791s-23.072-2.212-46.657,4.667C309.143,303.75,311.411,315.146,314.146,322.239Z" transform="translate(-301.73 -165.447)" opacity="0.2" style="isolation: isolate"/>
        <path id="Path_14320" data-name="Path 14320" d="M394.042,289.4c2.778-2.132.11-22.014,1.539-41.573,2.174-29.769,0-39.333-2.2-40.261a84.125,84.125,0,0,0-12.25-1.212,156.368,156.368,0,0,0-18.026.388,79.247,79.247,0,0,0-12.141,2.472s-9.822,31.259-3.548,76.3Z" transform="translate(-303.955 -159.508)" fill="#17a9fe"/>
        <path id="Path_14322" data-name="Path 14322" d="M380.158,184.708c-1.015,5.821-1.92,16.469,2.218,20.253A18.6,18.6,0,0,1,369.3,210.9c-7.433.328-4.952-5.545-4.952-5.545,6.437-1.684,6.166-6.483,4.944-10.964Z" transform="translate(-305.197 -158.072)" fill="#f8b58e"/>
        <path id="Path_14323" data-name="Path 14323" d="M376.113,188.937l-6.429,5.732a18.9,18.9,0,0,1,.625,3.186c2.463-.407,5.794-3.2,6-5.785A8.517,8.517,0,0,0,376.113,188.937Z" transform="translate(-305.579 -158.354)" fill="#e39567" style="isolation: isolate"/>
        <path id="Path_14324" data-name="Path 14324" d="M365.616,168.39c3.219,2.183,1.753,5.885-5.528,11.675-2.956-3.835-3.447-11.281-1.1-13.153S362.81,166.5,365.616,168.39Z" transform="translate(-304.767 -156.827)" fill="#263238"/>
        <path id="Path_14325" data-name="Path 14325" d="M379.418,174.173c-.349,7.866-.16,12.481-4.052,16.583-5.863,6.165-15.623,2.735-17.633-5.079-1.795-7.019-.929-18.707,6.706-21.959a10.737,10.737,0,0,1,14.979,10.454Z" transform="translate(-304.729 -156.614)" fill="#f8b58e"/>
        <path id="Path_14331" data-name="Path 14331" d="M377.378,167.49c-3.652,1.322-3.134,5.274,2.506,12.664,3.807-3,6.111-10.1,4.279-12.48S380.568,166.342,377.378,167.49Z" transform="translate(-305.937 -156.841)" fill="#263238"/>
        <path id="Path_14332" data-name="Path 14332" d="M384.617,181.331a7.482,7.482,0,0,1-3.483,4.537c-2.283,1.289-4.047-.6-3.941-3.084.1-2.236,1.41-5.6,3.951-5.873S385.238,178.982,384.617,181.331Z" transform="translate(-306.079 -157.551)" fill="#f8b58e"/>
        <path id="Path_14334" data-name="Path 14334" d="M367.971,165.57s1.174,7.876,8.757,8.376,9.217-4.188,9.217-4.188a14.226,14.226,0,0,1-1.867.156s2.217-3.825,0-7.522-9.779-7.547-15.389-5.564a13.351,13.351,0,0,0-10.619,1.029c-5.258,3.055-4.325,9.7-4.325,9.7s-.233-4.039,2.217-5.17c0,0-3.033,8.32,1.517,10.536C357.479,172.928,357.931,164.744,367.971,165.57Z" transform="translate(-304.512 -156.169)" fill="#263238"/>
        <path id="Path_14335" data-name="Path 14335" d="M352.068,245.665s-27.081-.617-28.6-.767-7.938-3.773-9.3-3.924-5.021,5.583-5.474,6.941,10.24,4.979,11.3,4.829a19.447,19.447,0,0,0,3.484-1.3L351.113,255Z" transform="translate(-301.513 -161.823)" fill="#f8b58e"/>
        <path id="Path_14344" data-name="Path 14344" d="M393.575,207.659c13.84,4.989-10.454,42.472-18,46.334s-27.394-.593-27.394-.593l1.231-11.579s15.713,1.058,18.838.268,10.551-16.766,14.823-24.311A24.133,24.133,0,0,1,393.575,207.659Z" transform="translate(-304.145 -159.602)" fill="#0991e1"/>
        <path id="Path_14347" data-name="Path 14347" d="M320.85,401.321l8.107-2.261a.53.53,0,0,1,.671.34l0,.007,2.187,6.31a1.327,1.327,0,0,1-.905,1.629c-2.842.743-4.235.956-7.81,1.924a69.8,69.8,0,0,1-9.589,2.364c-3.126.356-3.394-2.743-2.1-3.17,3.059-1.025,6.722-4.214,8.312-6.38A2.106,2.106,0,0,1,320.85,401.321Z" transform="translate(-301.646 -172.36)" fill="#ff6d66"/>
        <g id="Group_13085" data-name="Group 13085" transform="translate(32.268 231.617)">
          <path id="Path_14348" data-name="Path 14348" d="M339.7,407.474v-.007c0-.131-.126-2.25-.907-2.925a1.1,1.1,0,0,0-.833-.2.712.712,0,0,0-.637.567,2.671,2.671,0,0,0,.738,1.714,3.075,3.075,0,0,0-2.078-.383.668.668,0,0,0-.376.522.931.931,0,0,0,.272.959,2.01,2.01,0,0,0,1.427.281,9.25,9.25,0,0,0,1.954-.387.1.1,0,0,0,.063.006c.019-.012.02-.035.033-.052s.179-.043.189-.071c0-.007.157-.011.157-.02Zm-2.065-2.485c.009-.1.066-.229.314-.273l.086-.011a.506.506,0,0,1,.382.135,3.794,3.794,0,0,1,.633,2.293l-.154-.086A3.54,3.54,0,0,1,337.639,404.99Zm-1.53,2.474a.642.642,0,0,1-.164-.613.319.319,0,0,1,.181-.257c.478-.221,1.761.328,2.666.826C337.47,407.767,336.485,407.786,336.11,407.464Z" transform="translate(-335.573 -404.331)" fill="#17a9fe"/>
        </g>
        <path id="Path_14349" data-name="Path 14349" d="M339.355,406.688l8.4-.524a.532.532,0,0,1,.586.472v.008l.823,6.627a1.325,1.325,0,0,1-1.224,1.4c-2.934.134-4.342.053-8.04.255a69.735,69.735,0,0,1-9.872.315c-3.13-.3-2.747-3.39-1.4-3.537,3.207-.365,7.453-2.722,9.459-4.509A2.1,2.1,0,0,1,339.355,406.688Z" transform="translate(-302.775 -172.835)" fill="#ff6d66"/>
      </g>
    </g>
    <g id="Group_13167" data-name="Group 13167" transform="translate(1457.52 431.308)">
      <path id="Path_14336" data-name="Path 14336" d="M271,252v2.47c0,.74,1.273,1.264,2,1.264h57.674c.74,0,1.921-.524,1.921-1.264V252Z" transform="translate(-261.707 -220.267)"/>
      <path id="Path_14338" data-name="Path 14338" d="M271,252v2.47c0,.74,1.273,1.264,2,1.264h38.04c.74,0,1.955-.524,1.955-1.264V252Z" transform="translate(-261.707 -220.267)" fill="#383838" style="isolation: isolate"/>
      <path id="Path_14339" data-name="Path 14339" d="M261.088,219.412l6.867,31.247a2.432,2.432,0,0,0,2.229,1.874h37.5a1.627,1.627,0,0,0,1.409-2.091l-6.857-30.912A2.148,2.148,0,0,0,300.01,218h-37.5C261.5,218,260.865,218.4,261.088,219.412Z" transform="translate(-261.043 -218)"/>
      <path id="Path_14341" data-name="Path 14341" d="M261.088,219.412l6.867,31.247a2.432,2.432,0,0,0,2.229,1.874h36.229a1.631,1.631,0,0,0,1.418-2.091l-6.866-30.912a2.141,2.141,0,0,0-2.23-1.531H262.506C261.5,218,260.865,218.4,261.088,219.412Z" transform="translate(-261.043 -218)" fill="#383838" style="isolation: isolate"/>
      <path id="Path_14342" data-name="Path 14342" d="M284.437,240.372c-1.745,0-3.537-1.876-3.995-4.181s.6-4.191,2.352-4.191a2.716,2.716,0,0,1,.971.187A5.359,5.359,0,0,0,286.743,236a1.368,1.368,0,0,1,.047.187C287.247,238.5,286.192,240.372,284.437,240.372Z" transform="translate(-262.329 -218.933)" fill="#f9f9f9" style="isolation: isolate"/>
    </g>
    <g id="Group_13168" data-name="Group 13168" transform="translate(1409.667 466.6)">
      <path id="Path_14350" data-name="Path 14350" d="M300.027,405.553h5.628l.919-142.8h-7.467Z" transform="translate(-235.641 -253.42)" fill="#383838"/>
      <path id="Path_14356" data-name="Path 14356" d="M364.335,405.553h5.673l-8.34-142.8h-7.527Z" transform="translate(-242.142 -253.42)" fill="#383838"/>
      <path id="Rectangle_3718" data-name="Rectangle 3718" d="M2,0H121a2,2,0,0,1,2,2V7a0,0,0,0,1,0,0H0A0,0,0,0,1,0,7V2A2,2,0,0,1,2,0Z" transform="translate(128.333 13.4) rotate(180)" fill="#91ba83"/>
      <path id="Path_14359" data-name="Path 14359" d="M233.7,262.125H364.039c1.122,0,2.032-1.463,2.032-3.267h0c0-1.8-.91-3.267-2.032-3.267H233.7c-1.122,0-2.032,1.463-2.032,3.267h0C231.671,260.663,232.581,262.125,233.7,262.125Z" transform="translate(-231.671 -255.592)" fill="#ff6d66"/>
      <path id="Path_14457" data-name="Path 14457" d="M359.815,405.553h-5.673l8.34-142.8h7.527Z" transform="translate(-350.409 -253.42)" fill="#383838"/>
    </g>
    <g id="Group_13173" data-name="Group 13173" transform="translate(1457.267 162.333)">
      <rect id="Rectangle_3849" data-name="Rectangle 3849" width="75" height="129" rx="9" transform="translate(-0.267 -0.333)" fill="#383838"/>
      <rect id="Rectangle_3850" data-name="Rectangle 3850" width="75" height="110" transform="translate(-0.267 8.667)" fill="#91ba83"/>
      <rect id="Rectangle_3851" data-name="Rectangle 3851" width="54" height="54" rx="9" transform="translate(10.733 37.667)" fill="#fad8b0"/>
      <path id="Path_14459" data-name="Path 14459" d="M376.568,357.7A20.533,20.533,0,1,1,397.1,337.168,20.557,20.557,0,0,1,376.568,357.7Zm0-37.273a16.739,16.739,0,1,0,16.739,16.74A16.759,16.759,0,0,0,376.568,320.429Z" transform="translate(-339.235 -272.768)" fill="#f9865f"/>
      <path id="Path_14460" data-name="Path 14460" d="M375.748,346.323l-6.96-6.461,2.917-3.494,3.635,3.374,6.925-8.352,3.324,3.064Z" transform="translate(-340.788 -274.456)" fill="#f9865f"/>
      <path id="Path_14461" data-name="Path 14461" d="M386.214,284.241H367.645a5.4,5.4,0,0,1-5.182-5.6H391.4A5.4,5.4,0,0,1,386.214,284.241Z" transform="translate(-340.063 -271.174)" fill="#383838"/>
      <path id="Path_14462" data-name="Path 14462" d="M384.006,278.646H370.777c-.471,0-.852-.209-.852-.466h0c0-.258.381-.467.852-.467h13.229c.471,0,.853.209.853.467h0C384.858,278.438,384.476,278.646,384.006,278.646Z" transform="translate(-340.058 -271.18)" fill="#91ba83"/>
    </g>
  </g>
</svg>
